<!-- <svg width="594" height="776" viewBox="0 0 594 776" fill="none" xmlns="http://www.w3.org/2000/svg">
<path d="M426.594 275.894C480.381 329.68 513.914 393.505 524.668 453.198C535.422 512.892 523.391 568.403 486.13 605.664C448.869 642.925 393.358 654.955 333.664 644.201C273.972 633.448 210.146 599.914 156.36 546.128C102.574 492.341 69.0402 428.516 58.2866 368.824C47.5325 309.129 59.5633 253.619 96.8242 216.358C134.085 179.097 189.596 167.066 249.29 177.82C308.983 188.574 372.808 222.107 426.594 275.894Z" stroke="black"/>
<path d="M458.861 243.627C512.648 297.413 546.181 361.238 556.934 420.931C567.688 480.625 555.658 536.136 518.397 573.397C481.136 610.658 425.625 622.689 365.931 611.935C306.238 601.181 242.413 567.648 188.627 513.861C134.84 460.075 101.307 396.25 90.5535 336.557C79.7994 276.863 91.8302 221.352 129.091 184.091C166.352 146.83 221.863 134.8 281.557 145.554C341.25 156.307 405.075 189.84 458.861 243.627Z" stroke="black"/>
<path d="M491.128 211.36C544.914 265.146 578.448 328.972 589.201 388.664C599.955 448.358 587.925 503.869 550.664 541.13C513.403 578.391 457.892 590.422 398.198 579.668C338.505 568.914 274.68 535.381 220.894 481.594C167.107 427.808 133.574 363.983 122.82 304.29C112.066 244.596 124.097 189.085 161.358 151.824C198.619 114.563 254.13 102.533 313.824 113.287C373.516 124.04 437.341 157.574 491.128 211.36Z" stroke="black"/>
<path d="M287.912 588.971L272.838 605.641L292.325 616.837L271.813 607.652L267.187 629.646L269.584 607.299L247.237 609.696L269.23 605.069L260.045 584.557L271.242 604.045L287.912 588.971Z" fill="black"/>
<path d="M530 0L531.505 29.9289L560.434 22.1115L532.435 32.7911L548.809 57.8885L530 34.56L511.191 57.8885L527.565 32.7911L499.566 22.1115L528.495 29.9289L530 0Z" fill="black"/>
<path d="M109.785 679.569L97.584 660.694L81.7256 676.62L95.9067 659.184L75.8596 649.023L96.8247 657.122L100.293 634.916L99.0695 657.358L121.26 653.795L99.5387 659.566L109.785 679.569Z" fill="black"/>
</svg> -->
<svg width="395" height="541" viewBox="0 0 594 776" fill="none" xmlns="http://www.w3.org/2000/svg">
<path d="M426.594 275.894C480.381 329.68 513.914 393.505 524.668 453.198C535.422 512.892 523.391 568.403 486.13 605.664C448.869 642.925 393.358 654.955 333.664 644.201C273.972 633.448 210.146 599.914 156.36 546.128C102.574 492.341 69.0402 428.516 58.2866 368.824C47.5325 309.129 59.5633 253.619 96.8242 216.358C134.085 179.097 189.596 167.066 249.29 177.82C308.983 188.574 372.808 222.107 426.594 275.894Z" stroke="black"/>
<path d="M458.861 243.627C512.648 297.413 546.181 361.238 556.934 420.931C567.688 480.625 555.658 536.136 518.397 573.397C481.136 610.658 425.625 622.689 365.931 611.935C306.238 601.181 242.413 567.648 188.627 513.861C134.84 460.075 101.307 396.25 90.5535 336.557C79.7994 276.863 91.8302 221.352 129.091 184.091C166.352 146.83 221.863 134.8 281.557 145.554C341.25 156.307 405.075 189.84 458.861 243.627Z" stroke="black"/>
<path d="M491.128 211.36C544.914 265.146 578.448 328.972 589.201 388.664C599.955 448.358 587.925 503.869 550.664 541.13C513.403 578.391 457.892 590.422 398.198 579.668C338.505 568.914 274.68 535.381 220.894 481.594C167.107 427.808 133.574 363.983 122.82 304.29C112.066 244.596 124.097 189.085 161.358 151.824C198.619 114.563 254.13 102.533 313.824 113.287C373.516 124.04 437.341 157.574 491.128 211.36Z" stroke="black"/>
<path d="M287.912 588.971L272.838 605.641L292.325 616.837L271.813 607.652L267.187 629.646L269.584 607.299L247.237 609.696L269.23 605.069L260.045 584.557L271.242 604.045L287.912 588.971Z" fill="black"/>
<path d="M530 0L531.505 29.9289L560.434 22.1115L532.435 32.7911L548.809 57.8885L530 34.56L511.191 57.8885L527.565 32.7911L499.566 22.1115L528.495 29.9289L530 0Z" fill="black"/>
<path d="M109.785 679.569L97.584 660.694L81.7256 676.62L95.9067 659.184L75.8596 649.023L96.8247 657.122L100.293 634.916L99.0695 657.358L121.26 653.795L99.5387 659.566L109.785 679.569Z" fill="black"/>
</svg>
