<svg xmlns="http://www.w3.org/2000/svg" xmlns:xlink="http://www.w3.org/1999/xlink" width="500" zoomAndPan="magnify" viewBox="0 0 375 374.999991" height="500" preserveAspectRatio="xMidYMid meet" version="1.0"><defs><clipPath id="2c94795723"><path d="M 137.125 123.171875 L 197.125 123.171875 L 197.125 213.171875 L 137.125 213.171875 Z M 137.125 123.171875 " clip-rule="nonzero"/></clipPath><clipPath id="6d34122912"><path d="M 179.460938 123.171875 L 239.460938 123.171875 L 239.460938 213.171875 L 179.460938 213.171875 Z M 179.460938 123.171875 " clip-rule="nonzero"/></clipPath></defs><g clip-path="url(#2c94795723)"><path fill="#000000" d="M 139.125 213.136719 L 153.125 213.136719 C 154.226562 213.136719 155.125 212.242188 155.125 211.140625 L 155.125 151.601562 C 155.125 145.117188 160.097656 139.457031 166.582031 139.203125 C 173.457031 138.933594 179.125 144.378906 179.125 151.183594 C 179.125 152.285156 180.019531 153.179688 181.125 153.179688 L 195.125 153.179688 C 196.242188 153.179688 197.125 152.261719 197.125 151.144531 C 197.101562 135.734375 183.652344 123.203125 167.125 123.203125 C 150.582031 123.203125 137.125 135.753906 137.125 151.183594 L 137.125 211.140625 C 137.125 212.242188 138.019531 213.136719 139.125 213.136719 Z M 139.125 213.136719 " fill-opacity="1" fill-rule="nonzero"/></g><g clip-path="url(#6d34122912)"><path fill="#000000" d="M 181.460938 213.136719 L 195.460938 213.136719 C 196.566406 213.136719 197.460938 212.242188 197.460938 211.140625 L 197.460938 151.601562 C 197.460938 145.117188 202.433594 139.457031 208.921875 139.203125 C 215.792969 138.933594 221.460938 144.378906 221.460938 151.183594 C 221.460938 152.285156 222.359375 153.179688 223.460938 153.179688 L 237.460938 153.179688 C 238.582031 153.179688 239.464844 152.261719 239.460938 151.144531 C 239.441406 135.734375 225.992188 123.203125 209.460938 123.203125 C 192.921875 123.203125 179.460938 135.753906 179.460938 151.183594 L 179.460938 211.140625 C 179.460938 212.242188 180.359375 213.136719 181.460938 213.136719 Z M 181.460938 213.136719 " fill-opacity="1" fill-rule="nonzero"/></g></svg>